<svg width="88" height="77" viewBox="0 0 88 77" fill="none" xmlns="http://www.w3.org/2000/svg">
<g clip-path="url(#clip0_1230_3676)">
<path d="M43.0239 67.0494C36.5058 67.0494 31.2033 61.7469 31.2033 55.2288C31.2033 48.7107 36.5058 43.4082 43.0239 43.4082C49.542 43.4082 54.8445 48.7107 54.8445 55.2288C54.8445 61.7469 49.542 67.0494 43.0239 67.0494ZM43.0239 46.7032C38.3241 46.7032 34.4998 50.5275 34.4998 55.2273C34.4998 59.9271 38.3241 63.7515 43.0239 63.7515C47.7237 63.7515 51.548 59.9271 51.548 55.2273C51.548 50.5275 47.7237 46.7032 43.0239 46.7032Z" fill="#11160C"/>
<path d="M26.7191 66.1578H30.2179L22.358 44.3144H18.5498L10.6899 66.1578H14.1888L16.1889 60.3773H24.7233L26.7206 66.1578H26.7191ZM17.1465 57.6044L20.3725 48.2825H20.5426L23.7628 57.6044H17.1465Z" fill="#11160C"/>
<path d="M75.2303 66.1578L70.3941 57.3272C70.62 57.2436 70.8385 57.1527 71.0437 57.0486C72.1641 56.487 73.0028 55.6995 73.5615 54.6862C74.1202 53.673 74.3989 52.4984 74.3989 51.161C74.3989 49.8237 74.1217 48.6315 73.5674 47.6036C73.0131 46.5756 72.1758 45.7706 71.0555 45.1884C69.9352 44.6048 68.5289 44.3144 66.8367 44.3144H59.0501V66.1578H62.3451V57.8918H66.8249C66.8968 57.8918 66.9657 57.8888 67.0361 57.8874L71.4749 66.1578H75.2303ZM62.3466 47.1416H66.4847C67.5728 47.1416 68.4526 47.3029 69.1242 47.627C69.7958 47.9511 70.29 48.4145 70.6068 49.0186C70.9235 49.6228 71.0819 50.3369 71.0819 51.1625C71.0819 51.9881 70.925 52.6802 70.6126 53.2638C70.3003 53.8475 69.8076 54.2918 69.136 54.5968C68.4644 54.9033 67.5948 55.0558 66.5287 55.0558H62.348V47.1416H62.3466Z" fill="#11160C"/>
<path d="M44.3862 54.2991L52.9676 73.5645H83.8835V3.29645H3.29645V73.5645H32.8824L34.0687 76.861H0V0H87.18V76.861H50.4454L40.3962 54.2991H44.3862Z" fill="#7BBD40"/>
</g>
<defs>
<clipPath id="clip0_1230_3676">
<rect width="87.18" height="76.861" fill="white"/>
</clipPath>
</defs>
</svg>
