<svg width="1638" height="1501" viewBox="0 0 1638 1501" fill="none" xmlns="http://www.w3.org/2000/svg">
<path d="M150 300.033C232.843 300.033 300 232.869 300 150.017C300 67.1648 232.843 0 150 0C67.1573 0 0 67.1648 0 150.017C0 232.869 67.1573 300.033 150 300.033Z" fill="url(#paint0_radial_1071_10099)" style="mix-blend-mode:multiply"/>
<path d="M596 300.033C678.843 300.033 746 232.869 746 150.017C746 67.1648 678.843 0 596 0C513.157 0 446 67.1648 446 150.017C446 232.869 513.157 300.033 596 300.033Z" fill="url(#paint1_radial_1071_10099)" style="mix-blend-mode:multiply"/>
<path d="M1042 300.033C1124.84 300.033 1192 232.869 1192 150.017C1192 67.1648 1124.84 0 1042 0C959.157 0 892 67.1648 892 150.017C892 232.869 959.157 300.033 1042 300.033Z" fill="url(#paint2_radial_1071_10099)" style="mix-blend-mode:multiply"/>
<path d="M1488 300.033C1570.84 300.033 1638 232.869 1638 150.017C1638 67.1648 1570.84 0 1488 0C1405.16 0 1338 67.1648 1338 150.017C1338 232.869 1405.16 300.033 1488 300.033Z" fill="url(#paint3_radial_1071_10099)" style="mix-blend-mode:multiply"/>
<path d="M372 600.067C454.843 600.067 522 532.902 522 450.05C522 367.198 454.843 300.033 372 300.033C289.157 300.033 222 367.198 222 450.05C222 532.902 289.157 600.067 372 600.067Z" fill="url(#paint4_radial_1071_10099)" style="mix-blend-mode:multiply"/>
<path d="M819 600.067C901.843 600.067 969 532.902 969 450.05C969 367.198 901.843 300.033 819 300.033C736.157 300.033 669 367.198 669 450.05C669 532.902 736.157 600.067 819 600.067Z" fill="url(#paint5_radial_1071_10099)" style="mix-blend-mode:multiply"/>
<path d="M1266 600.067C1348.84 600.067 1416 532.902 1416 450.05C1416 367.198 1348.84 300.033 1266 300.033C1183.16 300.033 1116 367.198 1116 450.05C1116 532.902 1183.16 600.067 1266 600.067Z" fill="url(#paint6_radial_1071_10099)" style="mix-blend-mode:multiply"/>
<path d="M150 900.1C232.843 900.1 300 832.936 300 750.084C300 667.232 232.843 600.067 150 600.067C67.1573 600.067 0 667.232 0 750.084C0 832.936 67.1573 900.1 150 900.1Z" fill="url(#paint7_radial_1071_10099)" style="mix-blend-mode:multiply"/>
<path d="M596 900.1C678.843 900.1 746 832.936 746 750.084C746 667.232 678.843 600.067 596 600.067C513.157 600.067 446 667.232 446 750.084C446 832.936 513.157 900.1 596 900.1Z" fill="url(#paint8_radial_1071_10099)" style="mix-blend-mode:multiply"/>
<path d="M1042 900.1C1124.84 900.1 1192 832.936 1192 750.084C1192 667.232 1124.84 600.067 1042 600.067C959.157 600.067 892 667.232 892 750.084C892 832.936 959.157 900.1 1042 900.1Z" fill="url(#paint9_radial_1071_10099)" style="mix-blend-mode:multiply"/>
<path d="M1488 900.1C1570.84 900.1 1638 832.936 1638 750.084C1638 667.232 1570.84 600.067 1488 600.067C1405.16 600.067 1338 667.232 1338 750.084C1338 832.936 1405.16 900.1 1488 900.1Z" fill="url(#paint10_radial_1071_10099)" style="mix-blend-mode:multiply"/>
<path d="M372 1200.13C454.843 1200.13 522 1132.97 522 1050.12C522 967.265 454.843 900.1 372 900.1C289.157 900.1 222 967.265 222 1050.12C222 1132.97 289.157 1200.13 372 1200.13Z" fill="url(#paint11_radial_1071_10099)" style="mix-blend-mode:multiply"/>
<path d="M819 1200.13C901.843 1200.13 969 1132.97 969 1050.12C969 967.265 901.843 900.1 819 900.1C736.157 900.1 669 967.265 669 1050.12C669 1132.97 736.157 1200.13 819 1200.13Z" fill="url(#paint12_radial_1071_10099)" style="mix-blend-mode:multiply"/>
<path d="M1266 1200.13C1348.84 1200.13 1416 1132.97 1416 1050.12C1416 967.265 1348.84 900.1 1266 900.1C1183.16 900.1 1116 967.265 1116 1050.12C1116 1132.97 1183.16 1200.13 1266 1200.13Z" fill="url(#paint13_radial_1071_10099)" style="mix-blend-mode:multiply"/>
<path d="M150 1500.17C232.843 1500.17 300 1433 300 1350.15C300 1267.3 232.843 1200.13 150 1200.13C67.1573 1200.13 0 1267.3 0 1350.15C0 1433 67.1573 1500.17 150 1500.17Z" fill="url(#paint14_radial_1071_10099)" style="mix-blend-mode:multiply"/>
<path d="M596 1500.17C678.843 1500.17 746 1433 746 1350.15C746 1267.3 678.843 1200.13 596 1200.13C513.157 1200.13 446 1267.3 446 1350.15C446 1433 513.157 1500.17 596 1500.17Z" fill="url(#paint15_radial_1071_10099)" style="mix-blend-mode:multiply"/>
<path d="M1042 1500.17C1124.84 1500.17 1192 1433 1192 1350.15C1192 1267.3 1124.84 1200.13 1042 1200.13C959.157 1200.13 892 1267.3 892 1350.15C892 1433 959.157 1500.17 1042 1500.17Z" fill="url(#paint16_radial_1071_10099)" style="mix-blend-mode:multiply"/>
<path d="M1488 1500.17C1570.84 1500.17 1638 1433 1638 1350.15C1638 1267.3 1570.84 1200.13 1488 1200.13C1405.16 1200.13 1338 1267.3 1338 1350.15C1338 1433 1405.16 1500.17 1488 1500.17Z" fill="url(#paint17_radial_1071_10099)" style="mix-blend-mode:multiply"/>
<defs>
<radialGradient id="paint0_radial_1071_10099" cx="0" cy="0" r="1" gradientTransform="matrix(-106.799 -105.33 105.318 -106.811 149.99 150.013)" gradientUnits="userSpaceOnUse">
<stop offset="0.02" stop-color="#4CA79E" stop-opacity="0.5"/>
<stop offset="0.509615" stop-color="#79BDB6" stop-opacity="0.33"/>
<stop offset="1" stop-color="#A6D3CF" stop-opacity="0"/>
</radialGradient>
<radialGradient id="paint1_radial_1071_10099" cx="0" cy="0" r="1" gradientTransform="matrix(-106.799 -105.33 105.318 -106.811 595.99 150.013)" gradientUnits="userSpaceOnUse">
<stop stop-color="#EFB5C2" stop-opacity="0.9"/>
<stop offset="0.509615" stop-color="#EFB5C2" stop-opacity="0.33"/>
<stop offset="1" stop-color="#EFB5C2" stop-opacity="0"/>
</radialGradient>
<radialGradient id="paint2_radial_1071_10099" cx="0" cy="0" r="1" gradientTransform="matrix(-106.799 -105.33 105.318 -106.811 1041.99 150.013)" gradientUnits="userSpaceOnUse">
<stop offset="0.02" stop-color="#F1B355" stop-opacity="0.7"/>
<stop offset="0.509615" stop-color="#EFBF1B" stop-opacity="0.207843"/>
<stop offset="1" stop-color="#F1B355" stop-opacity="0"/>
</radialGradient>
<radialGradient id="paint3_radial_1071_10099" cx="0" cy="0" r="1" gradientTransform="matrix(-106.799 -105.33 105.318 -106.811 1487.99 150.013)" gradientUnits="userSpaceOnUse">
<stop offset="0.02" stop-color="#DFF94B" stop-opacity="0.5"/>
<stop offset="0.509615" stop-color="#DFF94B" stop-opacity="0.33"/>
<stop offset="1" stop-color="#DFF94B" stop-opacity="0"/>
</radialGradient>
<radialGradient id="paint4_radial_1071_10099" cx="0" cy="0" r="1" gradientTransform="matrix(-106.799 -105.33 105.318 -106.811 371.99 450.046)" gradientUnits="userSpaceOnUse">
<stop offset="0.02" stop-color="#7BBD40" stop-opacity="0.7"/>
<stop offset="0.509615" stop-color="#7BBD40" stop-opacity="0.23"/>
<stop offset="1" stop-color="#7BBD40" stop-opacity="0"/>
</radialGradient>
<radialGradient id="paint5_radial_1071_10099" cx="0" cy="0" r="1" gradientTransform="matrix(-106.799 -105.33 105.318 -106.811 818.99 450.046)" gradientUnits="userSpaceOnUse">
<stop stop-color="#EFB5C2" stop-opacity="0.9"/>
<stop offset="0.509615" stop-color="#EFB5C2" stop-opacity="0.33"/>
<stop offset="1" stop-color="#EFB5C2" stop-opacity="0"/>
</radialGradient>
<radialGradient id="paint6_radial_1071_10099" cx="0" cy="0" r="1" gradientTransform="matrix(-106.799 -105.33 105.318 -106.811 1265.99 450.046)" gradientUnits="userSpaceOnUse">
<stop offset="0.02" stop-color="#4CA79E" stop-opacity="0.5"/>
<stop offset="0.509615" stop-color="#79BDB6" stop-opacity="0.33"/>
<stop offset="1" stop-color="#A6D3CF" stop-opacity="0"/>
</radialGradient>
<radialGradient id="paint7_radial_1071_10099" cx="0" cy="0" r="1" gradientTransform="matrix(-106.799 -105.33 105.318 -106.811 149.99 750.08)" gradientUnits="userSpaceOnUse">
<stop offset="0.02" stop-color="#4CA79E" stop-opacity="0.5"/>
<stop offset="0.509615" stop-color="#79BDB6" stop-opacity="0.33"/>
<stop offset="1" stop-color="#A6D3CF" stop-opacity="0"/>
</radialGradient>
<radialGradient id="paint8_radial_1071_10099" cx="0" cy="0" r="1" gradientTransform="matrix(-106.799 -105.33 105.318 -106.811 595.99 750.08)" gradientUnits="userSpaceOnUse">
<stop stop-color="#EFB5C2" stop-opacity="0.9"/>
<stop offset="0.509615" stop-color="#EFB5C2" stop-opacity="0.33"/>
<stop offset="1" stop-color="#EFB5C2" stop-opacity="0"/>
</radialGradient>
<radialGradient id="paint9_radial_1071_10099" cx="0" cy="0" r="1" gradientTransform="matrix(-106.799 -105.33 105.318 -106.811 1041.99 750.08)" gradientUnits="userSpaceOnUse">
<stop offset="0.02" stop-color="#F1B355" stop-opacity="0.7"/>
<stop offset="0.509615" stop-color="#EFBF1B" stop-opacity="0.207843"/>
<stop offset="1" stop-color="#F1B355" stop-opacity="0"/>
</radialGradient>
<radialGradient id="paint10_radial_1071_10099" cx="0" cy="0" r="1" gradientTransform="matrix(-106.799 -105.33 105.318 -106.811 1487.99 750.08)" gradientUnits="userSpaceOnUse">
<stop offset="0.02" stop-color="#DFF94B" stop-opacity="0.5"/>
<stop offset="0.509615" stop-color="#DFF94B" stop-opacity="0.33"/>
<stop offset="1" stop-color="#DFF94B" stop-opacity="0"/>
</radialGradient>
<radialGradient id="paint11_radial_1071_10099" cx="0" cy="0" r="1" gradientTransform="matrix(-106.799 -105.33 105.318 -106.811 371.99 1050.11)" gradientUnits="userSpaceOnUse">
<stop offset="0.02" stop-color="#7BBD40" stop-opacity="0.7"/>
<stop offset="0.509615" stop-color="#7BBD40" stop-opacity="0.23"/>
<stop offset="1" stop-color="#7BBD40" stop-opacity="0"/>
</radialGradient>
<radialGradient id="paint12_radial_1071_10099" cx="0" cy="0" r="1" gradientTransform="matrix(-106.799 -105.33 105.318 -106.811 818.99 1050.11)" gradientUnits="userSpaceOnUse">
<stop stop-color="#EFB5C2" stop-opacity="0.9"/>
<stop offset="0.509615" stop-color="#EFB5C2" stop-opacity="0.33"/>
<stop offset="1" stop-color="#EFB5C2" stop-opacity="0"/>
</radialGradient>
<radialGradient id="paint13_radial_1071_10099" cx="0" cy="0" r="1" gradientTransform="matrix(-106.799 -105.33 105.318 -106.811 1265.99 1050.11)" gradientUnits="userSpaceOnUse">
<stop offset="0.02" stop-color="#4CA79E" stop-opacity="0.5"/>
<stop offset="0.509615" stop-color="#79BDB6" stop-opacity="0.33"/>
<stop offset="1" stop-color="#A6D3CF" stop-opacity="0"/>
</radialGradient>
<radialGradient id="paint14_radial_1071_10099" cx="0" cy="0" r="1" gradientTransform="matrix(-106.799 -105.33 105.318 -106.811 149.99 1350.15)" gradientUnits="userSpaceOnUse">
<stop offset="0.02" stop-color="#4CA79E" stop-opacity="0.5"/>
<stop offset="0.509615" stop-color="#79BDB6" stop-opacity="0.33"/>
<stop offset="1" stop-color="#A6D3CF" stop-opacity="0"/>
</radialGradient>
<radialGradient id="paint15_radial_1071_10099" cx="0" cy="0" r="1" gradientTransform="matrix(-106.799 -105.33 105.318 -106.811 595.99 1350.15)" gradientUnits="userSpaceOnUse">
<stop stop-color="#EFB5C2" stop-opacity="0.9"/>
<stop offset="0.509615" stop-color="#EFB5C2" stop-opacity="0.33"/>
<stop offset="1" stop-color="#EFB5C2" stop-opacity="0"/>
</radialGradient>
<radialGradient id="paint16_radial_1071_10099" cx="0" cy="0" r="1" gradientTransform="matrix(-106.799 -105.33 105.318 -106.811 1041.99 1350.15)" gradientUnits="userSpaceOnUse">
<stop offset="0.02" stop-color="#F1B355" stop-opacity="0.7"/>
<stop offset="0.509615" stop-color="#EFBF1B" stop-opacity="0.207843"/>
<stop offset="1" stop-color="#F1B355" stop-opacity="0"/>
</radialGradient>
<radialGradient id="paint17_radial_1071_10099" cx="0" cy="0" r="1" gradientTransform="matrix(-106.799 -105.33 105.318 -106.811 1487.99 1350.15)" gradientUnits="userSpaceOnUse">
<stop offset="0.02" stop-color="#DFF94B" stop-opacity="0.5"/>
<stop offset="0.509615" stop-color="#DFF94B" stop-opacity="0.33"/>
<stop offset="1" stop-color="#DFF94B" stop-opacity="0"/>
</radialGradient>
</defs>
</svg>
